PathFileType	4	(X/Y/Z)	Patient4_TMGait_0pt6_02_left_03.trc.trc
DataRate	CameraRate	NumFrames	NumMarkers	Units	OrigDataRate	OrigDataStartFrame	OrigNumFrames
77.777777777778	77.777777777778	4	33	mm	77.777777777778	36	       141
Frame#	Time	Sacral			L.Shoulder			Chest			R.Shoulder			Neck			R.ASIS			L.ASIS			R.Thigh.Superior			R.Thigh.Lateral			R.Thigh.Inferior			R.Patella			L.Thigh.Superior			L.Thigh.Lateral			L.Thigh.Inferior			L.Patella			L.Shank.Superior			L.Shank.Lateral			L.Shank.Inferior			R.Shank.Superior			R.Shank.Lateral			R.Shank.Inferior			R.Heel			R.Midfoot.Superior			R.Midfoot.Lateral			R.Toe			L.Heel			L.Midfoot.Lateral			L.Midfoot.Superior			L.Toe			L.Elbow			L.Wrist			R.Elbow			R.Wrist			
		X1	Y1	Z1	X2	Y2	Z2	X3	Y3	Z3	X4	Y4	Z4	X5	Y5	Z5	X6	Y6	Z6	X7	Y7	Z7	X8	Y8	Z8	X9	Y9	Z9	X10	Y10	Z10	X11	Y11	Z11	X12	Y12	Z12	X13	Y13	Z13	X14	Y14	Z14	X15	Y15	Z15	X16	Y16	Z16	X17	Y17	Z17	X18	Y18	Z18	X19	Y19	Z19	X20	Y20	Z20	X21	Y21	Z21	X22	Y22	Z22	X23	Y23	Z23	X24	Y24	Z24	X25	Y25	Z25	X26	Y26	Z26	X27	Y27	Z27	X28	Y28	Z28	X29	Y29	Z29	X30	Y30	Z30	X31	Y31	Z31	X32	Y32	Z32	X33	Y33	Z33	

36	3.980000000000	731.795759729346	1006.878314804957	485.013549036756	877.354921721656	1432.103699684049	288.848558479297	1003.787432461203	1364.772421423245	432.528587977712	944.033528273073	1437.554898587168	615.607188460086	878.691695398354	1490.129462531132	443.071453372692	963.480627645597	933.148992613730	578.116795714182	928.913387538595	959.234226953603	307.065891237317	968.844522280719	719.671670740983	561.400139226952	872.186373926264	623.671821346545	628.610497126140	940.934379447821	554.498218865824	554.171776783660	919.806421415352	451.719450852570	572.591344496376	1002.782468965424	766.165393888763	346.633482761677	934.342131807290	636.362673329129	287.945512066801	1030.963055257547	571.735773585933	350.786149844426	1042.497906529908	500.070364641219	359.940268932336	1018.685005090817	425.163319211707	353.591872654269	936.066276325046	305.148054956165	305.788852908803	995.066472499096	197.731889527222	375.516135268825	846.413674863893	385.493526438892	579.905617776532	730.165651122279	335.556046940730	640.538053531346	723.805326090644	226.622591685885	589.111623171765	527.723036909843	133.057971450713	560.590685539215	703.685587915358	112.143196453011	602.607423284027	596.575550742417	86.346451591142	633.388179734244	789.063555754978	33.177652960630	627.165676439731	874.061993528481	39.364091867058	419.018796061093	947.182502609158	36.979080317635	337.830440762346	1031.083387419241	97.456183734096	363.385822814317	1159.075081321020	42.576077615944	333.363004701980	796.799212964978	1080.712037727938	192.483037442058	858.930178458088	827.137544827487	184.024705264550	1024.709575524861	1092.405617587876	712.773537907775	1257.187013820107	1060.313444702283	620.215617717365	
37	3.992857142857	732.108478993732	1007.930651727987	481.351391696435	879.214095445558	1433.824694126428	286.486037397838	1004.618656835933	1366.092086677349	430.854755064933	943.623737991563	1438.412849715843	613.644315867459	879.370152918210	1491.381301941801	440.943734743375	963.395569205673	934.565068033135	575.514788180562	930.236927025644	960.268273192706	304.467722631675	973.573384753157	721.895150572782	559.822639058377	879.231691290650	624.197776517914	626.999881200645	950.171013686577	555.872480897812	552.995930014009	930.194899411859	451.559607429341	572.598255138160	1002.187107434820	765.258293535851	343.191280297558	931.390154859145	636.284829789109	285.724290331719	1027.307515994890	570.649858993110	348.271511226334	1037.930196876334	499.221276640522	358.032515053619	1013.717814025494	424.498707498301	351.942858576188	930.302466845870	304.919225569323	304.548289263502	988.388948498047	197.419091572810	374.861047131609	854.548754592550	386.465437127253	579.777457881058	736.341912802070	341.032531672394	640.190155772976	726.834446926541	231.847259424652	589.898563329355	527.877213491673	147.478243023651	561.916419190898	702.448996247834	116.135416416064	603.368315884976	594.138208435465	96.478150218630	634.315584646443	782.239742633948	32.147564871459	627.125294033139	866.367900018750	39.357608175603	418.938073465840	939.470445287652	36.903868130085	337.713913921839	1023.369647126959	97.420236606931	363.195634228638	1151.389075293821	42.459932376300	333.219415106302	800.948605900304	1082.468795535421	187.590600800227	873.139617132139	831.434681149169	178.587347782999	1018.542129664524	1091.224149833443	710.051937736932	1250.832496782455	1037.651049725930	623.428680840838	
38	4.005714285714	732.211771098799	1008.761677214300	477.791236063101	881.070333788294	1435.257024327434	284.131094174525	1005.344313071236	1367.199375905356	429.305157821534	942.986279315169	1439.084646215322	611.759218165951	879.951151620112	1492.439861668728	438.802113757922	963.100187118451	935.748400687275	573.116240424809	931.403546841147	961.084937014783	302.098133336732	978.570412173304	724.226999301509	558.202207446655	886.858614448629	624.738461235295	625.399707389733	959.895928403128	557.446525530396	551.626751104940	941.198671388684	451.663262293155	572.176301955442	1001.288805671635	764.123275083326	339.724954099183	928.166538523848	636.157958130104	283.394094957602	1023.360282627743	569.517749497236	345.666643509920	1033.063829376272	498.309367363032	355.892004400178	1008.490782707687	423.772769551977	350.108801094434	924.281320422701	304.584979582135	303.234754296893	981.607812854144	197.049568573936	374.086123889897	863.455355072512	387.603141305372	579.324347844304	743.547656687136	346.691711578759	639.709378736502	730.719999209287	237.453097780987	590.429104527322	529.283584620075	162.507979421528	563.153132085607	701.992605803477	120.851024112838	603.879401457091	592.815789254027	107.495008110281	635.202863104456	776.074900952888	31.267201777598	627.082561162894	858.651777346543	39.327103718736	418.864319808012	931.725817288202	36.786587089473	337.583459022643	1015.649430684762	97.308630723290	362.976582249574	1143.686601185592	42.254214932168	333.069004164844	805.091337730074	1084.029649192200	182.543745106473	887.697100234889	836.073696702575	173.193127970086	1012.370901738145	1090.088030611292	707.580002023948	1242.543674677041	1015.068582347035	627.242970806961	
39	4.018571428571	732.100463100189	1009.385403644628	474.382559379722	882.872186344710	1436.395031137855	281.818266850335	1005.953764347316	1368.080375080362	427.875006603659	942.180457539319	1439.575532203936	609.965562254700	880.457347921667	1493.311633890946	436.667633404110	962.598042849704	936.694480403475	570.917451139574	932.355695968950	961.704106861269	299.935969995541	983.707722825653	726.701175098759	556.444206533237	894.981267648281	625.371335466641	623.799628163937	969.963247716271	559.296236995171	550.032060372958	952.720975898105	452.103443081409	571.327831282995	1000.119906932845	762.870387194746	336.290459013577	924.738610101143	636.027125663840	281.007394707143	1019.199751524921	568.387738175719	343.009478959671	1027.989710679077	497.373507396564	353.581862187583	1003.084373813723	423.018919917503	348.145462240118	918.076133444146	304.196516407235	301.872403014620	974.758240642190	196.648629303345	373.217243563136	873.043636010720	388.956028045828	578.540832668062	751.698245756742	352.485091067279	639.067236403675	735.468711817461	243.390098791281	590.659145974270	531.982460993370	177.785749217719	564.193517804089	702.452992884535	126.263243204761	604.107552845571	592.745889370515	119.140128723084	635.962512821076	770.871611521184	30.743966008163	627.015314572108	850.924390268283	39.288908330555	418.784910041365	923.965130086894	36.648592357069	337.438160805795	1007.934405723071	97.147955578158	362.731026096507	1135.978242761414	41.986677023863	332.913986637503	809.326853255935	1085.348765502131	177.391519133142	902.523041091655	841.018182098266	167.865307838793	1006.135178131862	1088.979397914620	705.471021355259	1232.174040703179	992.921819109242	631.628377366929	
